HIERARCHY
ROOT Hips
{
	OFFSET -0.679128 -1.117075 -1.155059
	CHANNELS 6 Xposition Yposition Zposition Zrotation Yrotation Xrotation
	JOINT LHipJoint
	{
		OFFSET -1.151993 -1.470956 -1.947763
		CHANNELS 3 Zrotation Yrotation Xrotation
		JOINT LeftUpLeg
		{
			OFFSET -2.246247 -2.439834 -1.501016
			CHANNELS 3 Zrotation Yrotation Xrotation
			JOINT LeftLeg
			{
				OFFSET -2.321279 -2.107539 -1.779419
				CHANNELS 3 Zrotation Yrotation Xrotation
				JOINT LeftFoot
				{
					OFFSET -1.736476 -3.118479 -2.266053
					CHANNELS 3 Zrotation Yrotation Xrotation
					JOINT LeftToeBase
					{
						OFFSET -3.369286 -3.917937 -3.059995
						CHANNELS 3 Zrotation Yrotation Xrotation
						End Site
						{
							OFFSET 0.000000 0.000000 0.000000
						}
					}
				}
			}
		}
	}
	JOINT RHipJoint
	{
		OFFSET -2.881295 -2.619075 -2.929279
		CHANNELS 3 Zrotation Yrotation Xrotation
		JOINT RightUpLeg
		{
			OFFSET -2.394511 -3.001169 -2.139899
			CHANNELS 3 Zrotation Yrotation Xrotation
			JOINT RightLeg
			{
				OFFSET -2.086457 -1.170413 -1.819507
				CHANNELS 3 Zrotation Yrotation Xrotation
				JOINT RightFoot
				{
					OFFSET -1.538998 0.249046 -0.805466
					CHANNELS 3 Zrotation Yrotation Xrotation
					JOINT RightToeBase
					{
						OFFSET -1.018114 -1.310579 -1.195058
						CHANNELS 3 Zrotation Yrotation Xrotation
						End Site
						{
							OFFSET 0.000000 0.000000 0.000000
						}
					}
				}
			}
		}
	}
	JOINT LowerBack
	{
		OFFSET -1.964090 -2.483591 -1.068562
		CHANNELS 3 Zrotation Yrotation Xrotation
		JOINT Spine
		{
			OFFSET -0.965073 -1.123407 -0.832609
			CHANNELS 3 Zrotation Yrotation Xrotation
			JOINT Spine1
			{
				OFFSET -1.153486 -0.959739 -0.552670
				CHANNELS 3 Zrotation Yrotation Xrotation
				JOINT Neck
				{
					OFFSET 0.474935 0.177344 -0.170076
					CHANNELS 3 Zrotation Yrotation Xrotation
					JOINT Neck1
					{
						OFFSET 0.191708 -0.010877 0.146977
						CHANNELS 3 Zrotation Yrotation Xrotation
						JOINT Head
						{
							OFFSET 0.055150 0.586336 0.420119
							CHANNELS 3 Zrotation Yrotation Xrotation
							End Site
							{
								OFFSET 0.000000 0.000000 0.000000
							}
						}
					}
				}
				JOINT LeftShoulder
				{
					OFFSET -0.424293 0.044321 -1.377251
					CHANNELS 3 Zrotation Yrotation Xrotation
					JOINT LeftArm
					{
						OFFSET -1.635344 -1.975858 -2.668591
						CHANNELS 3 Zrotation Yrotation Xrotation
						JOINT LeftForeArm
						{
							OFFSET -2.793189 -3.158033 -1.762989
							CHANNELS 3 Zrotation Yrotation Xrotation
							JOINT LeftHand
							{
								OFFSET -2.147196 -1.489228 -0.885141
								CHANNELS 3 Zrotation Yrotation Xrotation
								JOINT LeftFingerBase
								{
									OFFSET -1.863378 -1.343408 -0.994368
									CHANNELS 3 Zrotation Yrotation Xrotation
									JOINT LeftHandIndex1
									{
										OFFSET -0.921540 -1.496713 -1.722605
										CHANNELS 3 Zrotation Yrotation Xrotation
										End Site
										{
											OFFSET 0.000000 0.000000 0.000000
										}
									}
								}
								JOINT LThumb
								{
									OFFSET -1.268709 -1.289675 -1.291708
									CHANNELS 3 Zrotation Yrotation Xrotation
									End Site
									{
										OFFSET 0.000000 0.000000 0.000000
									}
								}
							}
						}
					}
				}
				JOINT RightShoulder
				{
					OFFSET -1.307445 -1.686932 -1.089530
					CHANNELS 3 Zrotation Yrotation Xrotation
					JOINT RightArm
					{
						OFFSET -0.946716 -1.180865 -0.860594
						CHANNELS 3 Zrotation Yrotation Xrotation
						JOINT RightForeArm
						{
							OFFSET -1.392848 -1.197510 -2.042344
							CHANNELS 3 Zrotation Yrotation Xrotation
							JOINT RightHand
							{
								OFFSET -1.115727 -0.696215 -0.438353
								CHANNELS 3 Zrotation Yrotation Xrotation
								JOINT RightFingerBase
								{
									OFFSET -1.091344 -0.790229 -0.885477
									CHANNELS 3 Zrotation Yrotation Xrotation
									JOINT RightHandIndex1
									{
										OFFSET -0.858848 -0.771555 -0.537954
										CHANNELS 3 Zrotation Yrotation Xrotation
										End Site
										{
											OFFSET 0.000000 0.000000 0.000000
										}
									}
								}
								JOINT RThumb
								{
									OFFSET -0.888627 -1.529005 -1.619883
									CHANNELS 3 Zrotation Yrotation Xrotation
									End Site
									{
										OFFSET -2.111941 -2.174358 -2.094211
									}
								}
							}
						}
					}
				}
			}
		}
	}
}
MOTION
Frames: 6
Frame Time: 0.008333
2.658225 17.935085 1.633016 3.365843 1.134141 12.563807 4.374609 3.821937 4.122032 -6.362788 11.200462 -7.983785 4.613872 14.392807 43.886902 0.903371 17.399635 15.312853 1.288712 6.388946 18.365425 -0.780211 -1.365699 -2.151676 9.295472 -2.371762 -37.199394 -6.038722 -13.102139 21.977978 -3.152876 -13.570474 -12.564207 -0.501945 2.177132 -11.302542 0.348023 1.351416 1.534358 3.980890 3.808050 -0.528941 3.333590 2.339177 4.244934 -1.586294 -0.330844 -12.615021 3.996037 -1.412121 15.027890 3.300163 0.311062 9.619126 2.387949 0.510214 -1.028911 -91.306427 -19.694477 -23.270002 -23.831684 -43.403221 -19.784395 -1.039864 -1.864777 -6.884421 13.071813 11.106135 16.493511 -7.125000 0.000000 0.000000 23.183060 49.349155 14.437083 2.281317 -0.353554 -0.030856 83.589531 -4.648421 10.866835 -21.264570 21.445671 -10.086848 0.237832 -0.725124 -8.500099 -55.097672 -23.521759 -29.465094 7.125000 0.000000 0.000000 -5.304222 -43.462143 10.065452
2.576981 17.993660 3.668222 3.354105 1.859302 12.999149 4.827623 4.385540 4.639401 -4.632851 11.639841 -7.355037 4.443691 15.104311 48.076164 2.758057 26.537111 23.326851 2.103961 8.262052 24.668770 1.289393 -0.818704 -1.716510 10.638841 -4.088644 -38.692200 -6.472323 -13.444441 18.820976 -4.216236 -18.468756 -18.480406 -0.755433 1.923767 -10.824525 0.459043 1.308512 1.179104 4.047502 4.295933 0.528048 3.947639 2.813846 5.851898 -0.981074 -0.289669 -13.043987 3.646930 -1.964590 14.578495 3.298943 0.035658 8.340593 1.576651 -1.016384 -1.502357 -92.383156 -21.272831 -21.844408 -21.153873 -40.796448 -18.632759 -0.891170 -1.349418 -5.922465 14.056229 12.863640 15.303764 -7.125000 0.000000 0.000000 22.525524 46.577343 11.844802 2.092433 -0.635142 -0.114116 83.489227 -6.315110 3.926227 -23.236805 19.989145 -12.284237 0.018788 -1.065739 -14.972858 -74.146126 -32.491646 -34.224716 7.125000 0.000000 0.000000 -7.060477 -47.419807 6.038532
1.901002 17.892506 2.597492 2.274970 -0.499947 11.469391 2.956627 2.952824 2.802372 -8.179587 7.893566 -10.197517 2.612917 11.908955 36.434521 1.614814 22.150518 19.753298 1.786560 7.125927 24.261002 0.137221 -0.629457 -2.037203 9.688292 -1.904504 -33.303322 -5.702685 -13.616921 17.936222 -4.677795 -22.082350 -19.008308 -0.656251 1.933289 -6.857085 1.490103 2.271702 2.455285 4.316250 4.793488 1.350952 4.709428 3.503939 5.622181 -1.854924 -0.835282 -11.245947 5.051567 3.656025 20.152647 4.570454 1.031852 9.784136 2.350315 -0.278857 -1.341864 -94.128098 -20.314888 -22.072905 -20.706425 -41.412251 -20.581118 -1.007694 -1.536422 -12.285252 11.797506 11.679270 15.709637 -7.125000 0.000000 0.000000 21.450541 47.089321 11.025925 0.996369 -1.622835 -0.551914 78.809006 -11.104143 -4.812866 -26.591404 19.095633 -9.055333 0.413672 -0.628251 -7.021278 -48.655441 -24.922815 -16.921053 7.125000 0.000000 0.000000 -7.940850 -51.201389 -13.731539
1.931235 17.801607 -2.868756 1.397770 -1.200922 9.467449 1.242516 2.811970 2.680634 -7.135467 10.239252 -12.799143 1.810155 10.859827 32.338890 1.142769 17.947916 14.591539 1.299850 6.538048 20.109921 0.025394 -0.899181 -2.729411 11.043618 -0.339246 -32.135345 -6.075550 -13.936534 20.193203 -3.082598 -20.499390 -16.357113 -0.315035 3.485174 -1.734465 2.063532 2.079350 1.336509 3.836457 4.172405 0.681309 4.429427 3.447329 4.423683 -1.659767 -0.609558 -9.137678 5.719432 4.575780 21.419107 5.307089 1.201922 9.792346 2.157808 -0.680110 -1.610266 -96.654922 -25.169334 -32.187973 -21.399311 -42.454304 -21.646017 -1.195457 -1.780131 -16.136028 10.445963 9.316334 13.021706 -7.125000 0.000000 0.000000 24.096296 47.806030 8.119783 0.934178 -1.707549 -0.739312 77.072426 -13.293877 -10.164883 -26.123928 19.204765 -8.029819 0.717936 -0.308393 -1.625530 -30.308624 -16.064072 0.349511 7.125000 0.000000 0.000000 -23.927162 -59.094162 -26.856495
1.954414 17.809811 -3.612771 1.455282 -0.152363 11.275713 2.914673 3.292329 3.839587 -3.272314 13.803579 -2.386865 4.405754 11.932279 36.641754 2.183219 20.992018 17.301178 1.584856 6.002633 15.858102 -1.137398 -1.221397 -2.982563 13.258745 2.914562 -27.515602 -5.809698 -15.048786 14.550892 -4.727424 -19.301109 -15.941053 -0.203666 4.126419 2.129192 2.794012 3.089891 3.284863 4.067138 3.837849 -1.321336 1.978952 2.030919 3.665812 -0.444533 1.076426 -6.263219 6.723195 4.378023 20.509834 3.038046 0.123964 8.819339 0.843632 -1.392958 -1.774048 -95.813889 -21.049934 -33.200584 -25.280041 -43.690502 -23.495972 -1.285012 -2.112983 -25.712137 7.346618 7.132947 9.076622 -7.125000 0.000000 0.000000 29.297211 46.228447 6.326634 1.058536 -1.160301 -0.170108 81.039383 -10.036924 2.532480 -17.746679 23.045166 -5.535732 1.037902 -0.189575 -3.364674 -41.764908 -13.476190 0.524675 7.125000 0.000000 0.000000 -19.429886 -54.708427 -18.294548
1.767445 17.748522 -6.223554 1.300031 -0.149760 11.314044 3.446057 3.531740 4.416358 -1.236491 15.798628 -0.692995 4.700827 12.331397 38.547783 2.333210 23.262508 19.566383 1.739106 5.631125 14.822635 -0.806747 -1.289882 -2.957060 13.908798 1.225204 -30.825970 -7.115887 -16.853413 13.088850 -4.410120 -19.287430 -15.875687 -0.215443 3.814476 3.619174 2.415710 2.549090 2.537162 3.967940 3.389015 -0.864706 2.086128 2.007438 4.840004 -0.495903 1.047381 -5.543408 6.645560 5.132608 21.765968 4.000590 1.146713 10.549655 1.823660 -0.891647 -1.649539 -94.856415 -18.013329 -26.730307 -21.108608 -42.356621 -21.538509 -1.306618 -2.277148 -23.730026 7.857244 9.285685 9.583654 -7.125000 0.000000 0.000000 25.704113 47.131115 7.500985 0.828287 -1.165959 -0.493075 79.585876 -8.915915 4.851473 -14.211020 25.643761 -3.578456 1.293199 0.137676 1.392599 -21.838707 -4.805224 12.074195 7.125000 0.000000 0.000000 -4.249001 -49.154453 -12.526597
